<?xml version="1.0" standalone="no"?>
<!DOCTYPE svg PUBLIC "-//W3C//DTD SVG 20010904//EN"
 "http://www.w3.org/TR/2001/REC-SVG-20010904/DTD/svg10.dtd">
<svg version="1.0" xmlns="http://www.w3.org/2000/svg"
 width="1532.000000pt" height="427.000000pt" viewBox="0 0 1532.000000 427.000000"
 preserveAspectRatio="xMidYMid meet">

<g transform="translate(0.000000,427.000000) scale(0.100000,-0.100000)"
fill="#000000" stroke="none">
<path d="M6720 4244 c-19 -7 -181 -64 -360 -125 -1247 -426 -2391 -855 -3295
-1234 -1667 -699 -2692 -1306 -2967 -1757 -67 -108 -82 -161 -83 -273 0 -94 2
-105 34 -168 40 -83 120 -168 219 -232 617 -398 2690 -536 6022 -400 425 18
1362 65 1366 69 1 0 -1 43 -4 94 -4 84 -6 93 -26 97 -109 22 -420 103 -518
136 -473 156 -779 371 -869 608 -32 85 -24 193 21 285 41 82 148 200 256 281
177 134 489 292 765 388 16 5 15 11 -1 82 -10 42 -19 77 -21 79 -6 4 -3929
-958 -3928 -964 0 -3 24 -31 52 -63 l53 -57 175 34 c776 154 1384 110 1792
-132 139 -82 197 -146 169 -188 -25 -38 -151 -71 -319 -84 -312 -23 -1187 -47
-2028 -56 -630 -6 -1575 8 -1745 26 -289 31 -493 88 -594 165 -50 38 -80 105
-72 157 23 145 210 331 561 561 912 595 2430 1299 5247 2434 l238 95 -37 67
c-41 74 -53 91 -62 90 -3 -1 -22 -7 -41 -15z"/>
<path d="M7820 3594 c-178 -48 -271 -183 -300 -439 -13 -119 -13 -473 1 -572
28 -204 128 -373 257 -434 143 -66 336 -30 419 79 l33 44 0 -61 0 -61 105 0
105 0 0 385 0 385 -225 0 -225 0 0 -105 0 -105 96 0 97 0 -6 -87 c-6 -92 -33
-182 -68 -226 -44 -57 -168 -73 -228 -30 -66 49 -80 136 -81 503 0 341 16 427
92 483 39 29 126 34 184 12 58 -22 80 -66 90 -177 l7 -78 135 0 134 0 -4 103
c-3 88 -8 111 -34 167 -55 116 -151 191 -282 219 -73 15 -236 13 -302 -5z"/>
<path d="M11320 3594 c-142 -38 -230 -136 -275 -309 -33 -126 -46 -498 -24
-680 33 -272 163 -450 357 -485 117 -21 247 21 318 104 l34 40 0 -57 0 -57
110 0 110 0 0 385 0 385 -230 0 -230 0 0 -105 0 -104 98 -3 97 -3 -3 -65 c-9
-191 -83 -300 -202 -300 -63 0 -110 27 -138 77 -29 53 -41 193 -42 463 0 391
35 488 178 498 45 3 70 -1 106 -16 58 -26 74 -60 83 -173 l6 -79 138 0 139 0
0 48 c0 233 -112 390 -311 437 -81 19 -247 18 -319 -1z"/>
<path d="M9065 3593 c-144 -19 -259 -93 -315 -203 -46 -90 -54 -171 -54 -535
-1 -365 6 -432 55 -531 77 -160 306 -239 544 -189 185 39 279 140 317 342 9
46 13 164 13 363 0 246 -3 309 -18 380 -21 99 -70 210 -116 263 -76 86 -255
133 -426 110z m181 -222 c49 -22 80 -60 94 -113 7 -24 10 -173 8 -411 -3 -351
-4 -374 -23 -406 -64 -108 -197 -134 -285 -55 -67 61 -70 80 -70 485 l0 357
28 53 c23 45 37 59 81 82 63 32 110 34 167 8z"/>
<path d="M12545 3590 c-82 -13 -195 -71 -239 -121 -83 -97 -103 -191 -112
-514 -10 -336 10 -536 64 -640 67 -131 245 -207 451 -191 149 11 235 48 315
137 84 93 106 216 106 584 0 417 -52 595 -201 690 -79 51 -251 75 -384 55z
m203 -219 c46 -23 67 -46 87 -94 13 -30 15 -96 15 -409 0 -349 -2 -376 -20
-416 -54 -118 -196 -149 -294 -63 -10 9 -28 34 -40 56 -20 39 -21 51 -21 410
0 204 3 382 8 397 11 40 66 98 112 119 52 24 106 24 153 0z"/>
<path d="M9890 2865 l0 -716 303 3 c277 3 306 5 350 24 174 73 251 253 264
609 9 273 -21 518 -78 630 -30 58 -85 110 -143 137 -49 22 -61 23 -373 26
l-323 3 0 -716z m530 480 c74 -38 100 -140 107 -415 5 -234 -9 -368 -48 -447
-41 -80 -91 -102 -231 -103 l-78 0 0 490 0 490 110 0 c78 0 119 -4 140 -15z"/>
<path d="M13380 2865 l0 -715 138 0 137 0 0 297 0 298 115 0 c102 0 120 -3
156 -23 73 -43 78 -60 84 -292 6 -214 15 -258 55 -274 9 -3 75 -6 146 -6 l129
0 0 29 c0 16 -6 31 -14 34 -26 10 -37 79 -42 282 -4 134 -11 215 -21 247 -16
54 -63 100 -118 118 l-36 12 45 28 c131 84 188 319 113 473 -33 66 -91 128
-146 157 -88 44 -138 50 -448 50 l-293 0 0 -715z m545 481 c101 -43 125 -218
42 -313 -46 -53 -80 -63 -207 -63 l-110 0 0 195 0 195 120 0 c82 0 132 -5 155
-14z"/>
<path d="M14540 2865 l0 -715 390 0 390 0 0 115 0 115 -247 2 -248 3 -3 213
-2 212 225 0 225 0 0 110 0 110 -225 0 -226 0 3 158 3 157 248 3 247 2 0 115
0 115 -390 0 -390 0 0 -715z"/>
<path d="M11001 1675 c-60 -17 -95 -39 -139 -90 -39 -44 -56 -104 -49 -180 9
-115 61 -180 250 -313 124 -87 157 -125 157 -180 0 -44 -14 -68 -50 -87 -40
-21 -83 -19 -114 6 -38 30 -49 56 -55 129 l-6 65 -84 3 c-51 2 -88 -1 -95 -8
-16 -16 -11 -121 8 -178 21 -62 84 -127 154 -159 64 -30 181 -33 251 -8 128
45 202 157 187 284 -14 124 -77 199 -261 312 -139 86 -162 113 -150 176 7 39
52 73 98 73 53 0 107 -80 107 -157 0 -22 3 -23 91 -23 l92 0 -6 61 c-6 69 -42
150 -88 196 -70 73 -197 106 -298 78z"/>
<path d="M14901 1675 c-124 -35 -190 -118 -191 -241 0 -129 47 -196 236 -330
141 -100 174 -136 174 -192 0 -44 -14 -68 -50 -87 -54 -28 -115 -14 -147 34
-10 15 -19 55 -22 96 l-6 70 -92 3 c-92 3 -92 3 -99 -23 -9 -36 4 -130 26
-180 27 -64 73 -109 141 -140 127 -57 289 -27 378 71 113 121 80 320 -71 432
-29 22 -94 65 -145 96 -51 31 -101 68 -113 83 -46 59 -10 139 67 150 60 8 97
-30 113 -115 l13 -62 90 0 90 0 -6 53 c-10 83 -35 143 -83 196 -74 82 -193
116 -303 86z"/>
<path d="M7510 1170 l0 -490 95 0 95 0 0 490 0 490 -95 0 -95 0 0 -490z"/>
<path d="M8000 1170 l0 -490 101 0 102 0 -6 263 c-4 144 -9 294 -12 332 l-5
70 73 -185 c41 -102 100 -251 131 -332 l58 -148 99 0 99 0 0 490 0 490 -100 0
-100 0 0 -180 c0 -99 5 -247 11 -330 6 -83 9 -153 7 -155 -2 -2 -61 145 -130
328 l-126 332 -101 3 -101 3 0 -491z"/>
<path d="M8960 1170 l0 -490 208 0 c239 0 260 6 328 83 64 73 85 155 91 358 8
252 -18 397 -84 470 -54 60 -98 69 -340 69 l-203 0 0 -490z m367 320 c53 -32
68 -99 68 -315 -1 -205 -10 -252 -60 -302 -32 -32 -36 -33 -109 -33 l-76 0 0
328 c0 181 3 332 7 335 3 4 36 7 72 7 48 0 75 -5 98 -20z"/>
<path d="M9892 1253 c3 -396 4 -409 25 -448 29 -54 78 -99 138 -127 41 -19 66
-23 145 -23 83 1 101 4 146 27 70 37 111 73 137 122 21 40 22 50 25 449 l3
407 -96 0 -95 0 0 -362 c0 -218 -4 -378 -10 -400 -17 -59 -79 -98 -135 -84
-35 9 -72 50 -84 93 -7 23 -11 178 -11 396 l0 357 -95 0 -96 0 3 -407z"/>
<path d="M11640 1585 l0 -75 105 0 105 0 0 -415 0 -415 95 0 95 0 0 415 0 415
108 0 107 0 -3 75 -4 75 -304 0 -304 0 0 -75z"/>
<path d="M12490 1171 l0 -491 95 0 95 0 2 203 3 202 45 3 c69 5 128 -7 158
-33 27 -23 27 -25 32 -172 7 -202 8 -203 135 -203 103 0 111 6 80 54 -11 16
-17 69 -23 188 -9 184 -15 204 -78 236 l-35 18 23 13 c38 20 87 101 98 162 17
92 -8 175 -72 236 -64 62 -90 67 -335 71 l-223 4 0 -491z m368 328 c64 -22 90
-112 55 -186 -26 -55 -64 -73 -155 -73 l-78 0 0 128 c0 71 3 132 7 135 10 11
137 8 171 -4z"/>
<path d="M13430 1170 l0 -490 95 0 95 0 0 490 0 490 -95 0 -95 0 0 -490z"/>
<path d="M13930 1170 l0 -490 265 0 265 0 0 80 0 80 -167 2 -168 3 0 140 0
140 153 3 152 3 0 74 0 74 -152 3 -153 3 0 105 0 105 168 3 167 2 0 80 0 80
-265 0 -265 0 0 -490z"/>
</g>
</svg>
