<?xml version="1.0" standalone="no"?>
<!DOCTYPE svg PUBLIC "-//W3C//DTD SVG 20010904//EN"
 "http://www.w3.org/TR/2001/REC-SVG-20010904/DTD/svg10.dtd">
<svg version="1.0" xmlns="http://www.w3.org/2000/svg"
 width="1133.000000pt" height="915.000000pt" viewBox="0 0 1133.000000 915.000000"
 preserveAspectRatio="xMidYMid meet">

<g transform="translate(0.000000,915.000000) scale(0.100000,-0.100000)"
fill="#000000" stroke="none">
<path d="M9715 9012 c-60 -32 -270 -141 -465 -242 -680 -351 -1345 -707 -2030
-1088 -4311 -2396 -6598 -4283 -6795 -5606 -81 -545 168 -952 764 -1251 1060
-530 3195 -712 6566 -560 859 39 1869 106 2929 194 l449 38 29 31 c35 41 38
90 6 126 -13 13 -95 57 -183 96 -521 233 -981 516 -1276 785 -532 487 -658
1008 -378 1568 197 393 611 834 1176 1252 67 50 127 100 134 112 30 54 3 124
-55 143 -32 10 -64 0 -537 -176 -277 -102 -907 -332 -1399 -511 -2089 -757
-2394 -869 -2770 -1008 -217 -81 -439 -163 -494 -182 -105 -39 -136 -67 -136
-125 0 -32 41 -84 74 -92 14 -3 95 9 183 28 361 79 696 116 1043 117 404 0
703 -43 1001 -147 340 -118 563 -288 681 -521 131 -256 98 -357 -140 -433
-171 -55 -391 -83 -897 -115 -137 -9 -376 -24 -530 -35 -1981 -139 -3422 -113
-4300 75 -478 103 -784 257 -878 440 -8 17 -30 73 -48 125 -59 169 -42 313 65
535 384 797 1846 2046 4371 3734 879 588 1552 1018 3095 1978 925 575 966 602
979 631 20 42 13 82 -18 113 -46 45 -85 40 -216 -29z"/>
</g>
</svg>
